<?xml version="1.0" encoding="utf-8"?>
<!-- Generator: Adobe Illustrator 24.0.0, SVG Export Plug-In . SVG Version: 6.00 Build 0)  -->
<svg version="1.1" id="Layer_1" xmlns="http://www.w3.org/2000/svg" xmlns:xlink="http://www.w3.org/1999/xlink" x="0px" y="0px"
	 viewBox="0 0 256 256" enable-background="new 0 0 256 256" xml:space="preserve">
<g>
</g>
<g>
	<path fill="#EFEFEF" d="M9.772,63.101v169.413c0,5.523,4.477,10,10,10h216.456c5.523,0,10-4.477,10-10V63.101H9.772z"/>
	<path fill="#72C2E9" d="M183.834,218.029H72.167c-5.523,0-10-4.477-10-10V96.363c0-5.523,4.477-10,10-10h111.667
		c5.523,0,10,4.477,10,10v111.667C193.834,213.552,189.356,218.029,183.834,218.029z"/>
	<path fill="#FC5D3D" d="M246.228,63.101H9.772V34.45c0-5.523,4.477-10,10-10h216.456c5.523,0,10,4.477,10,10V63.101z"/>
	<path fill="#FFFFFF" d="M235.229,234.014h-201c-1.381,0-2.5-1.119-2.5-2.5s1.119-2.5,2.5-2.5h198.5v-156.5
		c0-1.381,1.119-2.5,2.5-2.5s2.5,1.119,2.5,2.5v159C237.729,232.895,236.61,234.014,235.229,234.014z M24.229,234.014h-3.457
		c-1.381,0-2.5-1.119-2.5-2.5s1.119-2.5,2.5-2.5h3.457c1.381,0,2.5,1.119,2.5,2.5S25.61,234.014,24.229,234.014z"/>
	<rect x="75.5" y="99.696" fill="#F0C020" width="105" height="105"/>
	<rect x="154.25" y="125.946" fill="#7D7B79" width="26.25" height="26.25"/>
	<path fill="#F8E5B0" d="M101.75,198.196h-8c-1.381,0-2.5-1.119-2.5-2.5s1.119-2.5,2.5-2.5h8c1.381,0,2.5,1.119,2.5,2.5
		S103.131,198.196,101.75,198.196z M83.75,198.196h-1.58c-1.381,0-2.5-1.119-2.5-2.5s1.119-2.5,2.5-2.5h1.58
		c1.381,0,2.5,1.119,2.5,2.5S85.131,198.196,83.75,198.196z"/>
	<path fill="#F8E5B0" d="M154.25,198.196h-5c-1.381,0-2.5-1.119-2.5-2.5s1.119-2.5,2.5-2.5h5c1.381,0,2.5,1.119,2.5,2.5
		S155.631,198.196,154.25,198.196z M139.25,198.196H128c-1.381,0-2.5-1.119-2.5-2.5s1.119-2.5,2.5-2.5h11.25
		c1.381,0,2.5,1.119,2.5,2.5S140.631,198.196,139.25,198.196z"/>
	<path fill="#F8E5B0" d="M171.5,180.946c-1.381,0-2.5-1.119-2.5-2.5v-26.25c0-1.381,1.119-2.5,2.5-2.5s2.5,1.119,2.5,2.5v26.25
		C174,179.827,172.881,180.946,171.5,180.946z"/>
	<path fill="#F8E5B0" d="M171.5,128.446c-1.381,0-2.5-1.119-2.5-2.5v-18.58c0-1.381,1.119-2.5,2.5-2.5s2.5,1.119,2.5,2.5v18.58
		C174,127.327,172.881,128.446,171.5,128.446z"/>
	<rect x="75.5" y="99.696" fill="#7D7B79" width="26.25" height="26.25"/>
	<rect x="128" y="99.696" fill="#7D7B79" width="26.25" height="26.25"/>
	<rect x="101.75" y="125.946" fill="#7D7B79" width="26.25" height="26.25"/>
	<rect x="75.5" y="152.196" fill="#7D7B79" width="26.25" height="26.25"/>
	<rect x="128" y="152.196" fill="#7D7B79" width="26.25" height="26.25"/>
	<rect x="101.75" y="178.446" fill="#7D7B79" width="26.25" height="26.25"/>
	<rect x="154.25" y="178.446" fill="#7D7B79" width="26.25" height="26.25"/>
	<path fill="#EFEFEF" d="M171.5,198.196h-17.25c-1.381,0-2.5-1.119-2.5-2.5s1.119-2.5,2.5-2.5H169v-14.75c0-1.381,1.119-2.5,2.5-2.5
		s2.5,1.119,2.5,2.5v17.25C174,197.077,172.881,198.196,171.5,198.196z"/>
	<path fill="#EFEFEF" d="M171.5,154.696c-1.381,0-2.5-1.119-2.5-2.5v-6c0-1.381,1.119-2.5,2.5-2.5s2.5,1.119,2.5,2.5v6
		C174,153.577,172.881,154.696,171.5,154.696z M171.5,138.696c-1.381,0-2.5-1.119-2.5-2.5v-10.25c0-1.381,1.119-2.5,2.5-2.5
		s2.5,1.119,2.5,2.5v10.25C174,137.577,172.881,138.696,171.5,138.696z"/>
	<path fill="#EFEFEF" d="M128,198.196h-26.25c-1.381,0-2.5-1.119-2.5-2.5s1.119-2.5,2.5-2.5H128c1.381,0,2.5,1.119,2.5,2.5
		S129.381,198.196,128,198.196z"/>
	<path fill="#FFCBC3" d="M235.229,54.982H35.896c-1.381,0-2.5-1.119-2.5-2.5s1.119-2.5,2.5-2.5h196.833V34.815
		c0-1.381,1.119-2.5,2.5-2.5s2.5,1.119,2.5,2.5v17.667C237.729,53.863,236.61,54.982,235.229,54.982z M25.896,54.982h-7.229
		c-1.381,0-2.5-1.119-2.5-2.5s1.119-2.5,2.5-2.5h7.229c1.381,0,2.5,1.119,2.5,2.5S27.277,54.982,25.896,54.982z"/>
	<path d="M202.15,242.518c0,1.37,1.12,2.49,2.49,2.49c1.38,0,2.5-1.12,2.5-2.49c0-1.38-1.12-2.5-2.5-2.5
		C203.27,240.018,202.15,241.138,202.15,242.518z"/>
	<circle cx="56.23" cy="63.098" r="2.5"/>
	<path d="M33,10.982c-1.381,0-2.5,1.119-2.5,2.5v8.466H19.77c-6.89,0-12.5,5.609-12.5,12.5c0,8.464,0,187.851,0,198.069
		c0,6.891,5.61,12.49,12.5,12.49h174.87c1.38,0,2.5-1.12,2.5-2.49c0-1.38-1.12-2.5-2.5-2.5H19.77c-4.13-0.01-7.49-3.38-7.5-7.5
		V65.598h33.96c1.38,0,2.5-1.12,2.5-2.5c0-1.37-1.12-2.5-2.5-2.5H12.27V34.448c0.01-4.131,3.37-7.49,7.5-7.5H30.5v9.034
		c0,1.381,1.119,2.5,2.5,2.5s2.5-1.119,2.5-2.5v-9.034h26.667v9.034c0,1.381,1.119,2.5,2.5,2.5s2.5-1.119,2.5-2.5v-9.034h26.667
		v9.034c0,1.381,1.119,2.5,2.5,2.5s2.5-1.119,2.5-2.5v-9.034H125.5v9.034c0,1.381,1.119,2.5,2.5,2.5s2.5-1.119,2.5-2.5v-9.034
		h26.667v9.034c0,1.381,1.119,2.5,2.5,2.5s2.5-1.119,2.5-2.5v-9.034h26.666v9.034c0,1.381,1.119,2.5,2.5,2.5s2.5-1.119,2.5-2.5
		v-9.034H220.5v9.034c0,1.381,1.119,2.5,2.5,2.5s2.5-1.119,2.5-2.5v-9.034h10.729c4.13,0.01,7.49,3.369,7.5,7.5v26.149H66.23
		c-1.38,0-2.5,1.13-2.5,2.5c0,1.38,1.12,2.5,2.5,2.5h177.5v166.92c-0.01,4.12-3.37,7.49-7.5,7.5h-21.59c-1.38,0-2.5,1.12-2.5,2.5
		s1.12,2.5,2.5,2.5c0.01,0,0.01,0,0.021-0.01h21.569c6.891,0,12.5-5.6,12.5-12.49c0-10.218,0-189.606,0-198.069
		c0-6.891-5.609-12.5-12.5-12.5H225.5v-8.466c0-1.381-1.119-2.5-2.5-2.5s-2.5,1.119-2.5,2.5v8.466h-26.667v-8.466
		c0-1.381-1.119-2.5-2.5-2.5s-2.5,1.119-2.5,2.5v8.466c-3.089,0-23.88,0-26.666,0v-8.466c0-1.381-1.119-2.5-2.5-2.5
		s-2.5,1.119-2.5,2.5v8.466H130.5v-8.466c0-1.381-1.119-2.5-2.5-2.5s-2.5,1.119-2.5,2.5v8.466H98.834v-8.466
		c0-1.381-1.119-2.5-2.5-2.5s-2.5,1.119-2.5,2.5v8.466H67.167v-8.466c0-1.381-1.119-2.5-2.5-2.5s-2.5,1.119-2.5,2.5v8.466H35.5
		v-8.466C35.5,12.102,34.381,10.982,33,10.982z"/>
	<path d="M80.41,83.868h-8.24c-6.9,0-12.5,5.6-12.5,12.5v111.66c0,6.89,5.6,12.5,12.5,12.5h111.66c6.89,0,12.5-5.61,12.5-12.5
		V96.368c0-6.9-5.61-12.5-12.5-12.5h-83.42c-1.38,0-2.5,1.12-2.5,2.5c0,1.37,1.12,2.5,2.5,2.5l0.01-0.011h83.41
		c4.13,0.011,7.5,3.381,7.5,7.511v111.66c0,4.13-3.37,7.489-7.5,7.5H72.17c-4.13-0.011-7.5-3.37-7.5-7.5V96.368
		c0-4.13,3.37-7.5,7.5-7.511h8.24c1.37,0,2.49-1.119,2.49-2.489C82.9,84.988,81.78,83.868,80.41,83.868z"/>
	<path d="M92.91,86.368c0-1.38-1.13-2.5-2.5-2.5c-1.38,0-2.5,1.12-2.5,2.5c0,1.37,1.12,2.489,2.5,2.489
		C91.78,88.857,92.91,87.738,92.91,86.368z"/>
	<path d="M73,99.696v105c0,1.381,1.119,2.5,2.5,2.5h105c1.381,0,2.5-1.119,2.5-2.5v-105c0-1.381-1.119-2.5-2.5-2.5h-105
		C74.119,97.196,73,98.315,73,99.696z M78,154.696h21.25v21.25H78V154.696z M104.25,154.696h21.25v21.25h-21.25V154.696z
		 M125.5,180.946v21.25h-21.25v-21.25H125.5z M130.5,180.946h21.25v21.25H130.5V180.946z M130.5,175.946v-21.25h21.25v21.25H130.5z
		 M156.75,154.696H178v21.25h-21.25V154.696z M178,149.696h-21.25v-21.25H178V149.696z M151.75,149.696H130.5v-21.25h21.25V149.696z
		 M130.5,123.446v-21.25h21.25v21.25H130.5z M125.5,123.446h-21.25v-21.25h21.25V123.446z M125.5,128.446v21.25h-21.25v-21.25H125.5
		z M99.25,149.696H78v-21.25h21.25V149.696z M78,180.946h21.25v21.25H78V180.946z M156.75,202.196v-21.25H178v21.25H156.75z
		 M178,123.446h-21.25v-21.25H178V123.446z M99.25,102.196v21.25H78v-21.25H99.25z"/>
	<path d="M211.294,150.982h16.123c1.381,0,2.5-1.119,2.5-2.5s-1.119-2.5-2.5-2.5h-16.123c-1.381,0-2.5,1.119-2.5,2.5
		S209.913,150.982,211.294,150.982z"/>
	<path d="M213.24,137.943l11.4-14.142c0.866-1.075,0.697-2.649-0.377-3.516c-1.077-0.867-2.648-0.697-3.516,0.377l-11.4,14.142
		c-0.866,1.075-0.697,2.649,0.377,3.516C210.802,139.188,212.375,139.016,213.24,137.943z"/>
	<path d="M220.748,176.302c0.866,1.073,2.439,1.245,3.516,0.377c1.074-0.866,1.243-2.44,0.377-3.516l-11.4-14.143
		c-0.867-1.074-2.439-1.245-3.516-0.377c-1.074,0.866-1.243,2.44-0.377,3.516L220.748,176.302z"/>
	<path d="M44.706,145.982H28.584c-1.381,0-2.5,1.119-2.5,2.5s1.119,2.5,2.5,2.5h16.123c1.381,0,2.5-1.119,2.5-2.5
		S46.087,145.982,44.706,145.982z"/>
	<path d="M42.76,159.021l-11.4,14.143c-0.867,1.075-0.698,2.649,0.377,3.516c1.07,0.864,2.647,0.7,3.515-0.377l11.4-14.143
		c0.867-1.075,0.698-2.649-0.377-3.516C45.2,157.775,43.625,157.945,42.76,159.021z"/>
	<path d="M46.275,138.32c1.075-0.866,1.244-2.44,0.377-3.516l-11.4-14.142c-0.867-1.075-2.441-1.245-3.515-0.377
		c-1.075,0.866-1.244,2.44-0.377,3.516l11.4,14.142C43.629,139.02,45.205,139.185,46.275,138.32z"/>
</g>
</svg>
